# xmcd
#
# Track frame offsets:
#  150
#  24288
#  44511
#  80270
#  110065
#  137243
#  163133
#  185140
#  204791
#  227431
#
# Disc length: 3298 seconds
#
# Revision: 0
# Processed by: cddbd v1.5.2PL0 Copyright (c) Steve Scherf et al.
# Submitted via: AltoMP3_Maker 3.0
#
DISCID=800ce00a
DTITLE=The Porkroll Project - Shake It Twice
DYEAR=1900
DGENRE=
TTITLE0=My Daddy Was The Postman
TTITLE1=Evil Woman Blues
TTITLE2=I'll Drink Your Bathwater
TTITLE3=Shake It Twice
TTITLE4=Walking The Dog
TTITLE5=Can't Turn My Back
TTITLE6=Dance Monkey Dance
TTITLE7=Blues Is My Business
TTITLE8=Two Weeks Notice
TTITLE9=Vehicle
EXTD=
EXTT0=
EXTT1=
EXTT2=
EXTT3=
EXTT4=
EXTT5=
EXTT6=
EXTT7=
EXTT8=
EXTT9=
PLAYORDER=
